<mxfile host="app.diagrams.net" agent="Mozilla/5.0 (Windows NT 10.0; Win64; x64) AppleWebKit/537.36 (KHTML, like Gecko) Chrome/140.0.0.0 Safari/537.36" version="28.2.3">
  <diagram name="Page-1" id="90a13364-a465-7bf4-72fc-28e22215d7a0">
    <mxGraphModel dx="1246" dy="857" grid="1" gridSize="10" guides="1" tooltips="1" connect="1" arrows="1" fold="1" page="1" pageScale="1.5" pageWidth="827" pageHeight="1169" background="none" math="0" shadow="0" adaptiveColors="auto">
      <root>
        <mxCell id="0" style=";html=1;" />
        <mxCell id="1" style=";html=1;" parent="0" />
        <mxCell id="3a17f1ce550125da-1" value="Printer Block&lt;div&gt;Layout&lt;/div&gt;" style="whiteSpace=wrap;html=1;shadow=1;fontSize=20;fillColor=#f5f5f5;strokeColor=#666666;strokeWidth=2;dashed=1;rounded=1;" parent="1" vertex="1">
          <mxGeometry x="517" y="200" width="150" height="60" as="geometry" />
        </mxCell>
        <mxCell id="3a17f1ce550125da-13" style="edgeStyle=elbowEdgeStyle;rounded=1;html=1;startArrow=none;startFill=0;jettySize=auto;orthogonalLoop=1;fontSize=18;elbow=vertical;" parent="1" source="3a17f1ce550125da-2" target="3a17f1ce550125da-4" edge="1">
          <mxGeometry relative="1" as="geometry" />
        </mxCell>
        <mxCell id="3a17f1ce550125da-14" style="edgeStyle=elbowEdgeStyle;rounded=1;html=1;startArrow=none;startFill=0;jettySize=auto;orthogonalLoop=1;fontSize=18;elbow=vertical;" parent="1" source="3a17f1ce550125da-2" target="3a17f1ce550125da-5" edge="1">
          <mxGeometry relative="1" as="geometry" />
        </mxCell>
        <mxCell id="3a17f1ce550125da-15" style="edgeStyle=elbowEdgeStyle;rounded=1;html=1;startArrow=classic;startFill=1;jettySize=auto;orthogonalLoop=1;fontSize=18;elbow=vertical;endArrow=none;endFill=0;" parent="1" source="3a17f1ce550125da-2" target="3a17f1ce550125da-6" edge="1">
          <mxGeometry relative="1" as="geometry" />
        </mxCell>
        <mxCell id="3a17f1ce550125da-16" style="edgeStyle=elbowEdgeStyle;rounded=1;html=1;startArrow=none;startFill=0;jettySize=auto;orthogonalLoop=1;fontSize=18;elbow=vertical;" parent="1" source="3a17f1ce550125da-2" target="3a17f1ce550125da-7" edge="1">
          <mxGeometry relative="1" as="geometry" />
        </mxCell>
        <mxCell id="F4Fsb5bBPxPFofwbzcf6-16" style="edgeStyle=orthogonalEdgeStyle;rounded=1;orthogonalLoop=1;jettySize=auto;html=1;exitX=0;exitY=0.098;exitDx=0;exitDy=0;entryX=1;entryY=0.5;entryDx=0;entryDy=0;exitPerimeter=0;" edge="1" parent="1" source="3a17f1ce550125da-2" target="3a17f1ce550125da-8">
          <mxGeometry relative="1" as="geometry" />
        </mxCell>
        <mxCell id="F4Fsb5bBPxPFofwbzcf6-29" style="edgeStyle=orthogonalEdgeStyle;rounded=1;orthogonalLoop=1;jettySize=auto;html=1;exitX=-0.005;exitY=0.467;exitDx=0;exitDy=0;entryX=1;entryY=0.5;entryDx=0;entryDy=0;exitPerimeter=0;" edge="1" parent="1" source="3a17f1ce550125da-2" target="F4Fsb5bBPxPFofwbzcf6-23">
          <mxGeometry relative="1" as="geometry" />
        </mxCell>
        <mxCell id="F4Fsb5bBPxPFofwbzcf6-31" style="edgeStyle=orthogonalEdgeStyle;rounded=1;orthogonalLoop=1;jettySize=auto;html=1;entryX=1;entryY=0.5;entryDx=0;entryDy=0;exitX=-0.004;exitY=0.719;exitDx=0;exitDy=0;exitPerimeter=0;" edge="1" parent="1" source="3a17f1ce550125da-2" target="F4Fsb5bBPxPFofwbzcf6-27">
          <mxGeometry relative="1" as="geometry" />
        </mxCell>
        <mxCell id="F4Fsb5bBPxPFofwbzcf6-32" style="edgeStyle=orthogonalEdgeStyle;rounded=1;orthogonalLoop=1;jettySize=auto;html=1;entryX=1;entryY=0.5;entryDx=0;entryDy=0;exitX=-0.007;exitY=0.861;exitDx=0;exitDy=0;exitPerimeter=0;" edge="1" parent="1" source="3a17f1ce550125da-2" target="F4Fsb5bBPxPFofwbzcf6-28">
          <mxGeometry relative="1" as="geometry" />
        </mxCell>
        <mxCell id="3a17f1ce550125da-2" value="BTT&lt;div&gt;PICO&lt;/div&gt;" style="whiteSpace=wrap;html=1;shadow=1;fontSize=18;fillColor=#f5f5f5;strokeColor=#666666;rounded=1;" parent="1" vertex="1">
          <mxGeometry x="507" y="310" width="170" height="280" as="geometry" />
        </mxCell>
        <mxCell id="3a17f1ce550125da-4" value="FAN 1" style="whiteSpace=wrap;html=1;shadow=1;fontSize=18;fillColor=#f5f5f5;strokeColor=#666666;rotation=0;rounded=1;" parent="1" vertex="1">
          <mxGeometry x="757" y="300" width="113" height="30" as="geometry" />
        </mxCell>
        <mxCell id="3a17f1ce550125da-5" value="FAN 2" style="whiteSpace=wrap;html=1;shadow=1;fontSize=18;fillColor=#f5f5f5;strokeColor=#666666;rounded=1;" parent="1" vertex="1">
          <mxGeometry x="757" y="343" width="113" height="30" as="geometry" />
        </mxCell>
        <mxCell id="3a17f1ce550125da-6" value="BED THERM" style="whiteSpace=wrap;html=1;shadow=1;fontSize=18;fillColor=#f5f5f5;strokeColor=#666666;rotation=0;rounded=1;" parent="1" vertex="1">
          <mxGeometry x="317" y="386" width="115" height="30" as="geometry" />
        </mxCell>
        <mxCell id="3a17f1ce550125da-7" value="LED STRIP" style="whiteSpace=wrap;html=1;shadow=1;fontSize=18;fillColor=#f5f5f5;strokeColor=#666666;rotation=0;rounded=1;" parent="1" vertex="1">
          <mxGeometry x="757" y="426" width="113" height="30" as="geometry" />
        </mxCell>
        <mxCell id="F4Fsb5bBPxPFofwbzcf6-15" style="edgeStyle=orthogonalEdgeStyle;rounded=1;orthogonalLoop=1;jettySize=auto;html=1;" edge="1" parent="1" source="3a17f1ce550125da-8" target="3a17f1ce550125da-9">
          <mxGeometry relative="1" as="geometry" />
        </mxCell>
        <mxCell id="3a17f1ce550125da-8" value="24v DC&lt;div&gt;240v AC&lt;div&gt;SSR&amp;nbsp;&lt;/div&gt;&lt;/div&gt;" style="whiteSpace=wrap;html=1;shadow=1;fontSize=18;fillColor=#f5f5f5;strokeColor=#666666;rotation=0;rounded=1;" parent="1" vertex="1">
          <mxGeometry x="317" y="300" width="115" height="75" as="geometry" />
        </mxCell>
        <mxCell id="3a17f1ce550125da-9" value="&lt;div&gt;750W&lt;/div&gt;&lt;div&gt;HEATER&lt;/div&gt;&lt;div&gt;BED&lt;/div&gt;" style="whiteSpace=wrap;html=1;shadow=1;fontSize=18;fillColor=#f5f5f5;strokeColor=#666666;rotation=0;rounded=1;" parent="1" vertex="1">
          <mxGeometry x="150" y="300" width="120" height="75" as="geometry" />
        </mxCell>
        <mxCell id="3a17f1ce550125da-10" value="EBB42" style="whiteSpace=wrap;html=1;shadow=1;fontSize=18;fillColor=#f5f5f5;strokeColor=#666666;rounded=1;" parent="1" vertex="1">
          <mxGeometry x="510" y="626" width="170" height="200" as="geometry" />
        </mxCell>
        <mxCell id="3a17f1ce550125da-23" style="edgeStyle=elbowEdgeStyle;rounded=1;html=1;startArrow=none;startFill=0;jettySize=auto;orthogonalLoop=1;fontSize=18;" parent="1" edge="1">
          <mxGeometry relative="1" as="geometry">
            <mxPoint x="597" y="630" as="sourcePoint" />
            <mxPoint x="597" y="590" as="targetPoint" />
            <Array as="points">
              <mxPoint x="597" y="610" />
              <mxPoint x="597" y="610" />
            </Array>
          </mxGeometry>
        </mxCell>
        <mxCell id="3a17f1ce550125da-24" style="edgeStyle=elbowEdgeStyle;rounded=1;html=1;startArrow=none;startFill=0;jettySize=auto;orthogonalLoop=1;fontSize=18;" parent="1" edge="1">
          <mxGeometry relative="1" as="geometry">
            <mxPoint x="590" y="590" as="sourcePoint" />
            <mxPoint x="590" y="630" as="targetPoint" />
            <Array as="points">
              <mxPoint x="590" y="610" />
              <mxPoint x="620" y="620" />
            </Array>
          </mxGeometry>
        </mxCell>
        <mxCell id="F4Fsb5bBPxPFofwbzcf6-13" value="FAN 3" style="whiteSpace=wrap;html=1;shadow=1;fontSize=18;fillColor=#f5f5f5;strokeColor=#666666;rounded=1;" vertex="1" parent="1">
          <mxGeometry x="757" y="386" width="113" height="30" as="geometry" />
        </mxCell>
        <mxCell id="F4Fsb5bBPxPFofwbzcf6-14" style="edgeStyle=elbowEdgeStyle;rounded=1;html=1;startArrow=none;startFill=0;jettySize=auto;orthogonalLoop=1;fontSize=18;elbow=vertical;" edge="1" parent="1">
          <mxGeometry relative="1" as="geometry">
            <mxPoint x="677" y="400.90999999999997" as="sourcePoint" />
            <mxPoint x="757" y="400.90999999999997" as="targetPoint" />
          </mxGeometry>
        </mxCell>
        <mxCell id="F4Fsb5bBPxPFofwbzcf6-17" value="Z END STOP" style="whiteSpace=wrap;html=1;shadow=1;fontSize=18;fillColor=#f5f5f5;strokeColor=#666666;rotation=0;rounded=1;" vertex="1" parent="1">
          <mxGeometry x="757" y="466" width="113" height="30" as="geometry" />
        </mxCell>
        <mxCell id="F4Fsb5bBPxPFofwbzcf6-22" style="edgeStyle=orthogonalEdgeStyle;rounded=1;orthogonalLoop=1;jettySize=auto;html=1;entryX=1.018;entryY=0.611;entryDx=0;entryDy=0;entryPerimeter=0;" edge="1" parent="1" source="F4Fsb5bBPxPFofwbzcf6-17" target="3a17f1ce550125da-2">
          <mxGeometry relative="1" as="geometry" />
        </mxCell>
        <mxCell id="F4Fsb5bBPxPFofwbzcf6-23" value="X STEPPER" style="whiteSpace=wrap;html=1;shadow=1;fontSize=18;fillColor=#f5f5f5;strokeColor=#666666;rotation=0;rounded=1;" vertex="1" parent="1">
          <mxGeometry x="317" y="426" width="115" height="30" as="geometry" />
        </mxCell>
        <mxCell id="F4Fsb5bBPxPFofwbzcf6-24" value="Y STEPPER" style="whiteSpace=wrap;html=1;shadow=1;fontSize=18;fillColor=#f5f5f5;strokeColor=#666666;rotation=0;rounded=1;" vertex="1" parent="1">
          <mxGeometry x="317" y="461" width="113" height="30" as="geometry" />
        </mxCell>
        <mxCell id="F4Fsb5bBPxPFofwbzcf6-27" value="Z STEPPER" style="whiteSpace=wrap;html=1;shadow=1;fontSize=18;fillColor=#f5f5f5;strokeColor=#666666;rotation=0;rounded=1;" vertex="1" parent="1">
          <mxGeometry x="317" y="496" width="113" height="30" as="geometry" />
        </mxCell>
        <mxCell id="F4Fsb5bBPxPFofwbzcf6-28" value="Z2 STEPPER" style="whiteSpace=wrap;html=1;shadow=1;fontSize=18;fillColor=#f5f5f5;strokeColor=#666666;rotation=0;rounded=1;" vertex="1" parent="1">
          <mxGeometry x="317" y="536" width="113" height="30" as="geometry" />
        </mxCell>
        <mxCell id="F4Fsb5bBPxPFofwbzcf6-30" style="edgeStyle=orthogonalEdgeStyle;rounded=1;orthogonalLoop=1;jettySize=auto;html=1;entryX=0.977;entryY=0.523;entryDx=0;entryDy=0;entryPerimeter=0;exitX=-0.009;exitY=0.595;exitDx=0;exitDy=0;exitPerimeter=0;" edge="1" parent="1" source="3a17f1ce550125da-2" target="F4Fsb5bBPxPFofwbzcf6-24">
          <mxGeometry relative="1" as="geometry" />
        </mxCell>
        <mxCell id="F4Fsb5bBPxPFofwbzcf6-33" value="RPI&lt;div&gt;3B+&lt;/div&gt;" style="whiteSpace=wrap;html=1;shadow=1;fontSize=18;fillColor=#f5f5f5;strokeColor=#666666;rounded=1;" vertex="1" parent="1">
          <mxGeometry x="920" y="466" width="145" height="120" as="geometry" />
        </mxCell>
        <mxCell id="F4Fsb5bBPxPFofwbzcf6-34" style="edgeStyle=orthogonalEdgeStyle;rounded=1;orthogonalLoop=1;jettySize=auto;html=1;entryX=1.018;entryY=0.843;entryDx=0;entryDy=0;entryPerimeter=0;exitX=0;exitY=0.917;exitDx=0;exitDy=0;exitPerimeter=0;" edge="1" parent="1" source="F4Fsb5bBPxPFofwbzcf6-33">
          <mxGeometry relative="1" as="geometry">
            <mxPoint x="756.9950000000001" y="576.08" as="sourcePoint" />
            <mxPoint x="680.4899999999999" y="576.04" as="targetPoint" />
          </mxGeometry>
        </mxCell>
        <mxCell id="F4Fsb5bBPxPFofwbzcf6-36" value="UART" style="text;html=1;align=center;verticalAlign=middle;whiteSpace=wrap;rounded=1;" vertex="1" parent="1">
          <mxGeometry x="773" y="536" width="60" height="30" as="geometry" />
        </mxCell>
        <mxCell id="F4Fsb5bBPxPFofwbzcf6-37" value="CANBUS" style="text;html=1;align=center;verticalAlign=middle;whiteSpace=wrap;rounded=1;" vertex="1" parent="1">
          <mxGeometry x="597" y="596" width="60" height="30" as="geometry" />
        </mxCell>
        <mxCell id="F4Fsb5bBPxPFofwbzcf6-38" value="E STEPPER" style="whiteSpace=wrap;html=1;shadow=1;fontSize=18;fillColor=#f5f5f5;strokeColor=#666666;rotation=0;rounded=1;" vertex="1" parent="1">
          <mxGeometry x="315" y="630" width="113" height="30" as="geometry" />
        </mxCell>
        <mxCell id="F4Fsb5bBPxPFofwbzcf6-39" value="FAN 1" style="whiteSpace=wrap;html=1;shadow=1;fontSize=18;fillColor=#f5f5f5;strokeColor=#666666;rotation=0;rounded=1;" vertex="1" parent="1">
          <mxGeometry x="757" y="630" width="113" height="30" as="geometry" />
        </mxCell>
        <mxCell id="F4Fsb5bBPxPFofwbzcf6-40" value="FAN 2" style="whiteSpace=wrap;html=1;shadow=1;fontSize=18;fillColor=#f5f5f5;strokeColor=#666666;rounded=1;" vertex="1" parent="1">
          <mxGeometry x="757" y="675" width="113" height="30" as="geometry" />
        </mxCell>
        <mxCell id="F4Fsb5bBPxPFofwbzcf6-41" style="edgeStyle=orthogonalEdgeStyle;rounded=1;orthogonalLoop=1;jettySize=auto;html=1;entryX=1.018;entryY=0.843;entryDx=0;entryDy=0;entryPerimeter=0;exitX=0;exitY=0.917;exitDx=0;exitDy=0;exitPerimeter=0;startArrow=classic;startFill=1;endArrow=none;endFill=0;" edge="1" parent="1">
          <mxGeometry relative="1" as="geometry">
            <mxPoint x="920.0000000000002" y="566" as="sourcePoint" />
            <mxPoint x="680.49" y="566.04" as="targetPoint" />
          </mxGeometry>
        </mxCell>
        <mxCell id="F4Fsb5bBPxPFofwbzcf6-42" value="LED STRIP" style="whiteSpace=wrap;html=1;shadow=1;fontSize=18;fillColor=#f5f5f5;strokeColor=#666666;rotation=0;rounded=1;" vertex="1" parent="1">
          <mxGeometry x="757" y="720" width="113" height="30" as="geometry" />
        </mxCell>
        <mxCell id="F4Fsb5bBPxPFofwbzcf6-44" value="HE THERM" style="whiteSpace=wrap;html=1;shadow=1;fontSize=18;fillColor=#f5f5f5;strokeColor=#666666;rotation=0;rounded=1;" vertex="1" parent="1">
          <mxGeometry x="313" y="675" width="115" height="30" as="geometry" />
        </mxCell>
        <mxCell id="F4Fsb5bBPxPFofwbzcf6-45" value="HE HEATER" style="whiteSpace=wrap;html=1;shadow=1;fontSize=18;fillColor=#f5f5f5;strokeColor=#666666;rotation=0;rounded=1;" vertex="1" parent="1">
          <mxGeometry x="317" y="720" width="115" height="30" as="geometry" />
        </mxCell>
        <mxCell id="F4Fsb5bBPxPFofwbzcf6-46" style="edgeStyle=orthogonalEdgeStyle;rounded=1;orthogonalLoop=1;jettySize=auto;html=1;entryX=1;entryY=0.5;entryDx=0;entryDy=0;exitX=-0.007;exitY=0.861;exitDx=0;exitDy=0;exitPerimeter=0;" edge="1" parent="1">
          <mxGeometry relative="1" as="geometry">
            <mxPoint x="508" y="644.77" as="sourcePoint" />
            <mxPoint x="432" y="644.77" as="targetPoint" />
          </mxGeometry>
        </mxCell>
        <mxCell id="F4Fsb5bBPxPFofwbzcf6-49" style="edgeStyle=orthogonalEdgeStyle;rounded=1;orthogonalLoop=1;jettySize=auto;html=1;entryX=1;entryY=0.5;entryDx=0;entryDy=0;exitX=-0.007;exitY=0.861;exitDx=0;exitDy=0;exitPerimeter=0;" edge="1" parent="1">
          <mxGeometry relative="1" as="geometry">
            <mxPoint x="508" y="689.55" as="sourcePoint" />
            <mxPoint x="432" y="689.55" as="targetPoint" />
          </mxGeometry>
        </mxCell>
        <mxCell id="F4Fsb5bBPxPFofwbzcf6-50" style="edgeStyle=orthogonalEdgeStyle;rounded=1;orthogonalLoop=1;jettySize=auto;html=1;entryX=1;entryY=0.5;entryDx=0;entryDy=0;exitX=-0.007;exitY=0.861;exitDx=0;exitDy=0;exitPerimeter=0;" edge="1" parent="1">
          <mxGeometry relative="1" as="geometry">
            <mxPoint x="508" y="734.55" as="sourcePoint" />
            <mxPoint x="432" y="734.55" as="targetPoint" />
          </mxGeometry>
        </mxCell>
        <mxCell id="F4Fsb5bBPxPFofwbzcf6-51" value="EDDY" style="whiteSpace=wrap;html=1;shadow=1;fontSize=18;fillColor=#f5f5f5;strokeColor=#666666;rounded=1;" vertex="1" parent="1">
          <mxGeometry x="512" y="866" width="170" height="90" as="geometry" />
        </mxCell>
        <mxCell id="F4Fsb5bBPxPFofwbzcf6-52" value="CANBUS" style="text;html=1;align=center;verticalAlign=middle;whiteSpace=wrap;rounded=1;" vertex="1" parent="1">
          <mxGeometry x="600" y="836" width="60" height="30" as="geometry" />
        </mxCell>
        <mxCell id="F4Fsb5bBPxPFofwbzcf6-53" style="edgeStyle=elbowEdgeStyle;rounded=1;html=1;startArrow=none;startFill=0;jettySize=auto;orthogonalLoop=1;fontSize=18;" edge="1" parent="1">
          <mxGeometry relative="1" as="geometry">
            <mxPoint x="590" y="826" as="sourcePoint" />
            <mxPoint x="590" y="866" as="targetPoint" />
            <Array as="points">
              <mxPoint x="590" y="846" />
              <mxPoint x="620" y="856" />
            </Array>
          </mxGeometry>
        </mxCell>
        <mxCell id="F4Fsb5bBPxPFofwbzcf6-54" style="edgeStyle=elbowEdgeStyle;rounded=1;html=1;startArrow=classic;startFill=1;jettySize=auto;orthogonalLoop=1;fontSize=18;endArrow=none;endFill=0;" edge="1" parent="1">
          <mxGeometry relative="1" as="geometry">
            <mxPoint x="597" y="826" as="sourcePoint" />
            <mxPoint x="597" y="866" as="targetPoint" />
            <Array as="points">
              <mxPoint x="597" y="846" />
              <mxPoint x="627" y="856" />
            </Array>
          </mxGeometry>
        </mxCell>
        <mxCell id="F4Fsb5bBPxPFofwbzcf6-55" style="edgeStyle=orthogonalEdgeStyle;rounded=1;orthogonalLoop=1;jettySize=auto;html=1;entryX=1;entryY=0.5;entryDx=0;entryDy=0;exitX=-0.007;exitY=0.861;exitDx=0;exitDy=0;exitPerimeter=0;startArrow=classic;startFill=1;endArrow=none;endFill=0;" edge="1" parent="1">
          <mxGeometry relative="1" as="geometry">
            <mxPoint x="756" y="644.62" as="sourcePoint" />
            <mxPoint x="680" y="644.62" as="targetPoint" />
          </mxGeometry>
        </mxCell>
        <mxCell id="F4Fsb5bBPxPFofwbzcf6-56" style="edgeStyle=orthogonalEdgeStyle;rounded=1;orthogonalLoop=1;jettySize=auto;html=1;entryX=1;entryY=0.5;entryDx=0;entryDy=0;exitX=-0.007;exitY=0.861;exitDx=0;exitDy=0;exitPerimeter=0;startArrow=classic;startFill=1;endArrow=none;endFill=0;" edge="1" parent="1">
          <mxGeometry relative="1" as="geometry">
            <mxPoint x="756" y="689.62" as="sourcePoint" />
            <mxPoint x="680" y="689.62" as="targetPoint" />
          </mxGeometry>
        </mxCell>
        <mxCell id="F4Fsb5bBPxPFofwbzcf6-57" style="edgeStyle=orthogonalEdgeStyle;rounded=1;orthogonalLoop=1;jettySize=auto;html=1;entryX=1;entryY=0.5;entryDx=0;entryDy=0;exitX=-0.007;exitY=0.861;exitDx=0;exitDy=0;exitPerimeter=0;startArrow=classic;startFill=1;endArrow=none;endFill=0;" edge="1" parent="1">
          <mxGeometry relative="1" as="geometry">
            <mxPoint x="758" y="734.62" as="sourcePoint" />
            <mxPoint x="682" y="734.62" as="targetPoint" />
          </mxGeometry>
        </mxCell>
      </root>
    </mxGraphModel>
  </diagram>
</mxfile>
